<?xml version="1.0" encoding="utf-8"?>
<!-- Generator: Adobe Illustrator 19.2.1, SVG Export Plug-In . SVG Version: 6.00 Build 0)  -->
<svg version="1.1" id="Layer_1" xmlns="http://www.w3.org/2000/svg" xmlns:xlink="http://www.w3.org/1999/xlink" x="0px" y="0px"
	 viewBox="0 0 512 457" style="enable-background:new 0 0 512 457;" xml:space="preserve">
<style type="text/css">
	.st0{fill:#FFFFFF;}
	.st1{fill:#ADA075;}
</style>
<g>
	<g>
		<g>
			<g>
				<path class="st0" d="M144.9,183.6l11.5-2.7c1.7-0.4,3.5-0.8,5.4-1.1s3.7-0.5,5.5-0.4s3.4,0.5,5,1.2s3,1.9,4.1,3.5
					c1.2,1.6,2.1,3.8,2.8,6.6c0.7,2.7,1.1,6.2,1.1,10.4v21.1c0,4.2-0.3,7.9-1.1,10.9c-0.7,3.1-1.6,5.7-2.8,7.9
					c-1.2,2.2-2.6,4-4.1,5.4c-1.6,1.4-3.3,2.6-5,3.6c-1.8,0.9-3.6,1.7-5.5,2.2s-3.6,1-5.4,1.4l-11.5,2.7V183.6z M158.7,245.4
					c2-0.5,3.6-1.1,4.9-1.9c1.3-0.8,2.3-2,3.1-3.4c0.7-1.5,1.3-3.4,1.6-5.7c0.3-2.3,0.4-5.2,0.4-8.6v-22.6c0-3.4-0.1-6.2-0.4-8.4
					c-0.3-2.2-0.8-3.8-1.6-4.9c-0.8-1.1-1.8-1.8-3.1-2s-2.9-0.1-4.9,0.4l-2.8,0.7v57L158.7,245.4z"/>
				<path class="st0" d="M188.4,173.4l11-2.6v72.7l-11,2.6V173.4z"/>
				<path class="st0" d="M224.8,238.2c-0.8,0.2-1.8,0.3-3,0.4c-1.1,0.1-2.3,0-3.5-0.3s-2.4-0.9-3.6-1.7c-1.2-0.8-2.2-2-3.1-3.6
					c-0.9-1.6-1.7-3.6-2.3-6.1s-0.8-5.6-0.8-9.2v-25.8c0-3.7,0.3-6.9,0.9-9.6c0.6-2.7,1.4-5.1,2.4-7.1s2.1-3.7,3.4-5.1
					c1.3-1.4,2.6-2.5,4-3.4s2.8-1.6,4.1-2.1c1.4-0.5,2.6-0.9,3.8-1.1c2.9-0.7,5.4-0.9,7.5-0.6c2,0.3,3.7,1,5,2.2
					c1.3,1.1,2.2,2.5,2.7,4.3c0.6,1.7,0.8,3.7,0.8,5.8c0,1.6-0.1,3-0.3,4.4s-0.4,2.9-0.7,4.5l-8.8,2.1v-3.4c0-8-2.1-11.5-6.4-10.5
					c-1.2,0.3-2.2,0.7-3,1.3s-1.6,1.4-2.1,2.5c-0.6,1.1-1,2.4-1.3,4.1c-0.3,1.6-0.4,3.6-0.4,5.9v33c0,2.3,0.1,4.1,0.4,5.6
					c0.3,1.4,0.7,2.6,1.2,3.3c0.6,0.8,1.3,1.3,2.1,1.4c0.8,0.2,1.8,0.1,3-0.1c1.2-0.3,2.3-0.9,3.2-1.7s1.6-1.9,2.2-3.1
					c0.6-1.2,1-2.6,1.3-4.2c0.3-1.6,0.4-3.2,0.4-5v-9.5l-5.7,1.3v-7.2l16.4-3.9v36.8l-7.3,1.7l-1.2-6.6c-1.4,3-3,5.3-4.8,6.9
					C229.4,236.6,227.3,237.6,224.8,238.2z"/>
				<path class="st0" d="M252.9,158.2l11-2.6v72.8l-11,2.6V158.2z"/>
				<path class="st0" d="M281.4,160.1l-11.7,2.8v-8.7l34.4-8.1v8.7l-11.7,2.8v64.1l-11,2.6L281.4,160.1L281.4,160.1z"/>
				<path class="st0" d="M317.8,142.9l12.7-3l13.5,69.6l-11.2,2.6l-2-12.6l-13.3,3.1l-1.9,13.5l-11.2,2.6L317.8,142.9z M329.5,191.5
					l-5.1-35l-0.5,0.1l-5.1,37.5L329.5,191.5z"/>
				<path class="st0" d="M349.3,135.4l11-2.6v64.1l15-3.6v8.7l-26.1,6.2v-72.8H349.3z"/>
			</g>
			<g>
				<path class="st0" d="M150.7,139.2l-6.2,1.5v-4.6l18.1-4.3v4.6l-6.2,1.4v33.8l-5.8,1.4L150.7,139.2L150.7,139.2z"/>
				<path class="st0" d="M165.7,131.1l5.8-1.4v16.1l6.9-1.6v-16.1l5.8-1.4V165l-5.8,1.4v-17.7l-6.9,1.6V168l-5.8,1.4V131.1z"/>
				<path class="st0" d="M189.9,125.3l14.2-3.4v4.6l-8.4,2V140l6.5-1.5v4.6l-6.5,1.5v13.1l8.6-2v4.6l-14.4,3.4L189.9,125.3
					L189.9,125.3z"/>
			</g>
			<g>
				<path class="st0" d="M144.2,267.8l27-6.4v8.7l-15.9,3.8v21.8l12.3-2.9v8.7l-12.3,2.9v24.9l16.4-3.9v8.7l-27.4,6.5v-72.8H144.2z"
					/>
				<path class="st0" d="M177.8,259.9l14.4-3.4l7,26.5c0.7,2.9,1.3,5.8,1.7,8.5s0.8,5.3,1.2,7.7l0.3-0.1c0.4-2.6,0.8-5.3,1.2-8.3
					c0.4-2.9,1-6,1.7-9.3l7.2-29.9l14.1-3.3v72.8l-10.3,2.4v-24c0-3.7,0-7.2,0.1-10.7c0.1-3.4,0.2-6.6,0.3-9.5s0.2-5.4,0.4-7.6
					s0.3-4,0.4-5.3l-0.8,0.2l-11,50.1l-7,1.7l-11.1-44.9l-0.8,0.2c0.1,1.2,0.2,2.9,0.4,5.1c0.1,2.2,0.3,4.6,0.4,7.5
					c0.1,2.8,0.2,5.9,0.3,9.3s0.1,6.9,0.1,10.6v24.1l-10.3,2.4v-72.8H177.8z"/>
				<path class="st0" d="M237.5,245.8l11.2-2.6c1.7-0.4,3.4-0.7,5.1-1c1.8-0.3,3.5-0.5,5.1-0.5c1.7,0,3.3,0.1,4.8,0.5s2.8,1,3.9,2
					s2,2.3,2.7,3.9s1,3.7,1,6.3v3.5c0,1.9-0.3,3.8-0.8,5.5c-0.6,1.7-1.3,3.3-2.2,4.8c-0.9,1.4-2,2.7-3.1,3.8
					c-1.2,1.1-2.4,1.9-3.6,2.5v0.3c3.6-0.2,6.3,0.9,8.2,3.2c1.8,2.3,2.7,5.7,2.7,10v3.7c0,2.6-0.3,5-0.9,7.1s-1.4,3.9-2.5,5.6
					c-1.1,1.6-2.3,3.1-3.8,4.3c-1.5,1.2-3,2.3-4.8,3.2c-1.7,0.9-3.6,1.7-5.5,2.3c-2,0.6-4,1.2-6,1.7l-11.6,2.7L237.5,245.8
					L237.5,245.8z M250.4,273.9c1.5-0.3,2.8-0.8,4-1.5c1.2-0.6,2.3-1.4,3.1-2.4c0.9-1,1.5-2.1,2-3.4c0.4-1.3,0.7-2.8,0.7-4.5v-3
					c0-1.7-0.2-3.2-0.5-4.4c-0.3-1.2-0.9-2.2-1.7-2.9c-0.8-0.7-1.8-1.2-3.1-1.3c-1.3-0.2-2.8,0-4.6,0.4l-2.1,0.5v23.1L250.4,273.9z
					 M251.5,307.6c1.5-0.3,2.8-0.8,4-1.5c1.2-0.7,2.2-1.5,3.1-2.5s1.5-2.2,2-3.6s0.7-2.9,0.7-4.6v-5.7c0-1.7-0.2-3.2-0.5-4.4
					c-0.3-1.2-0.9-2.2-1.7-2.9c-0.8-0.7-1.8-1.2-3-1.3c-1.3-0.2-2.8-0.1-4.6,0.4l-3.2,0.7v26.2L251.5,307.6z"/>
				<path class="st0" d="M288.4,233.8l12.7-3l13.5,69.6l-11.2,2.6l-2-12.6l-13.3,3.1l-1.9,13.5l-11.2,2.6L288.4,233.8z M300.1,282.5
					l-5.1-35l-0.5,0.1l-5.1,37.5L300.1,282.5z"/>
				<path class="st0" d="M317,285.1c0-1.6,0.1-3,0.3-4.4c0.2-1.4,0.5-2.9,0.8-4.5l8.6-2v3.5c0,2,0.1,3.7,0.4,5.1
					c0.2,1.4,0.6,2.6,1.2,3.5s1.3,1.5,2.2,1.8c0.9,0.3,2,0.3,3.4,0c2.1-0.5,3.7-1.5,4.8-2.9c1.1-1.4,1.7-3.2,1.7-5.4
					c0-1.1-0.1-2.2-0.2-3.1c-0.2-0.9-0.4-1.8-0.8-2.6c-0.4-0.8-0.9-1.7-1.6-2.6c-0.6-0.9-1.5-1.8-2.5-2.9l-11.5-11
					c-2-2.1-3.6-4.4-4.7-6.8s-1.7-5.1-1.7-8.1c0-2.4,0.4-4.7,1.1-6.9c0.7-2.2,1.8-4.2,3.2-6c1.4-1.8,3.2-3.3,5.3-4.6
					c2.1-1.3,4.5-2.3,7.1-2.9c3.2-0.8,5.9-0.9,8-0.5c2.2,0.4,3.9,1.2,5.1,2.4c1.3,1.2,2.2,2.6,2.7,4.3c0.5,1.7,0.8,3.5,0.8,5.3
					c0,1.6-0.1,3-0.4,4.4c-0.2,1.4-0.5,2.9-0.8,4.6l-8.5,2v-3.5c0-3.9-0.6-6.7-1.7-8.5s-2.9-2.4-5.4-1.8c-2.1,0.5-3.6,1.4-4.6,2.8
					s-1.5,3.1-1.5,5c0,1,0.1,1.9,0.3,2.7c0.1,0.8,0.4,1.5,0.7,2.1c0.3,0.6,0.7,1.2,1.1,1.8c0.4,0.6,0.9,1.1,1.5,1.7l12.8,12.5
					c2.3,2.5,4.1,5,5.4,7.5c1.2,2.5,1.9,5.3,1.9,8.4c0,2.6-0.4,5-1.2,7.3c-0.8,2.3-2,4.3-3.5,6.1c-1.5,1.8-3.3,3.3-5.4,4.6
					c-2.1,1.3-4.5,2.2-7.2,2.9c-3.3,0.8-6,1-8.2,0.6s-3.9-1.1-5.2-2.3c-1.3-1.1-2.2-2.6-2.7-4.3C317.2,288.8,317,287,317,285.1z"/>
				<path class="st0" d="M356,275.9c0-1.6,0.1-3,0.3-4.4c0.2-1.4,0.5-2.9,0.8-4.5l8.6-2v3.5c0,2,0.1,3.7,0.4,5.1
					c0.2,1.5,0.6,2.6,1.2,3.5s1.3,1.5,2.2,1.8c0.9,0.3,2,0.3,3.4,0c2.1-0.5,3.7-1.4,4.8-2.9c1.1-1.4,1.7-3.2,1.7-5.4
					c0-1.1-0.1-2.2-0.2-3.1c-0.2-0.9-0.4-1.8-0.8-2.6c-0.4-0.9-0.9-1.7-1.5-2.6c-0.7-0.9-1.5-1.8-2.5-2.9l-11.5-11
					c-2-2.1-3.6-4.4-4.7-6.8s-1.7-5.1-1.7-8.1c0-2.4,0.4-4.7,1.1-6.9c0.8-2.2,1.8-4.2,3.3-6c1.4-1.8,3.2-3.3,5.3-4.7
					c2.1-1.3,4.4-2.3,7.1-2.9c3.2-0.8,5.9-0.9,8-0.5c2.2,0.4,3.8,1.2,5.1,2.4c1.3,1.2,2.2,2.6,2.7,4.3s0.8,3.5,0.8,5.3
					c0,1.6-0.1,3-0.4,4.4c-0.2,1.4-0.5,2.9-0.8,4.6l-8.5,2v-3.4c0-3.9-0.6-6.7-1.7-8.5s-2.9-2.4-5.4-1.8c-2.1,0.5-3.6,1.4-4.7,2.8
					c-1,1.4-1.5,3.1-1.5,5c0,1,0.1,1.9,0.2,2.7c0.2,0.8,0.4,1.5,0.7,2.1c0.3,0.6,0.7,1.2,1.1,1.8c0.4,0.6,0.9,1.1,1.4,1.7l12.7,12.6
					c2.3,2.5,4.1,5,5.4,7.5c1.2,2.5,1.9,5.3,1.9,8.4c0,2.6-0.4,5-1.2,7.3c-0.8,2.3-2,4.3-3.5,6.1c-1.5,1.8-3.3,3.3-5.5,4.6
					c-2.1,1.3-4.5,2.2-7.2,2.9c-3.3,0.8-6,1-8.2,0.6s-3.9-1.1-5.2-2.3c-1.3-1.1-2.2-2.6-2.7-4.3C356.2,279.7,356,277.8,356,275.9z"
					/>
				<path class="st0" d="M406.4,254.5l-14.7-45.1l11.1-2.6l8.9,32.7l0.5-0.1l8.8-36.9l11.1-2.6l-14.7,52v24.2l-11,2.6L406.4,254.5
					L406.4,254.5z"/>
			</g>
		</g>
		<g>
			<g>
				<path class="st1" d="M0,157.2l61.3-15.1v-32.8L512,0v299.7l-402.6,97.6v32.9L0,457V157.2z M8.5,446.2l87.2-21.3l-34.4-16.8
					V150.9l-52.8,13C8.5,163.9,8.5,446.2,8.5,446.2z M69.8,398.3l433.7-105.2V10.8L69.8,116V398.3z"/>
			</g>
		</g>
		<g>
			<g>
				<path class="st1" d="M62.9,110.6v32.8L1.6,158.5V455l106.3-25.9v-32.9l402.5-97.7V2.1L62.9,110.6z M6.9,448.2V162.6l56-13.8
					v251.5v5.9v0.9l37.5,18.3L6.9,448.2z M505.1,294.3l-436.9,106V142.1v-27.3l436.9-106V294.3z"/>
			</g>
		</g>
	</g>
</g>
</svg>
